<svg width="28" height="28" viewBox="0 0 28 28" fill="none" xmlns="http://www.w3.org/2000/svg">
<path d="M10.5573 6.42H8.25879C7.24325 6.42 6.42 7.24325 6.42 8.25879V10.5573C6.42 11.5728 7.24325 12.3961 8.25879 12.3961H10.5573C11.5728 12.3961 12.3961 11.5728 12.3961 10.5573V8.25879C12.3961 7.24325 11.5728 6.42 10.5573 6.42Z" stroke="#0D0D14" stroke-linecap="round" stroke-linejoin="round"/>
<path d="M18.602 6.42V9.40803M18.602 9.40803V12.3961M18.602 9.40803H15.6139M18.602 9.40803H21.59" stroke="#0D0D14" stroke-linecap="round" stroke-linejoin="round"/>
<path d="M10.5573 15.614H8.25879C7.24325 15.614 6.42 16.4372 6.42 17.4527V19.7512C6.42 20.7668 7.24325 21.59 8.25879 21.59H10.5573C11.5728 21.59 12.3961 20.7668 12.3961 19.7512V17.4527C12.3961 16.4372 11.5728 15.614 10.5573 15.614Z" stroke="#0D0D14" stroke-linecap="round" stroke-linejoin="round"/>
<path d="M19.7512 15.614H17.4527C16.4372 15.614 15.6139 16.4372 15.6139 17.4527V19.7512C15.6139 20.7668 16.4372 21.59 17.4527 21.59H19.7512C20.7667 21.59 21.59 20.7668 21.59 19.7512V17.4527C21.59 16.4372 20.7667 15.614 19.7512 15.614Z" stroke="#0D0D14" stroke-linecap="round" stroke-linejoin="round"/>
</svg>
